<?xml version="1.0" encoding="UTF-8" standalone="no"?>
<!-- Created with Inkscape (http://www.inkscape.org/) -->

<svg
   version="1.1"
   id="svg1"
   width="432.79999"
   height="461.70667"
   viewBox="0 0 432.79999 461.70667"
   sodipodi:docname="KEG_Logo_pur.svg"
   inkscape:version="1.3.1 (91b66b0783, 2023-11-16, custom)"
   xmlns:inkscape="http://www.inkscape.org/namespaces/inkscape"
   xmlns:sodipodi="http://sodipodi.sourceforge.net/DTD/sodipodi-0.dtd"
   xmlns="http://www.w3.org/2000/svg"
   xmlns:svg="http://www.w3.org/2000/svg">
  <defs
     id="defs1" />
  <sodipodi:namedview
     id="namedview1"
     pagecolor="#505050"
     bordercolor="#eeeeee"
     borderopacity="1"
     inkscape:showpageshadow="0"
     inkscape:pageopacity="0"
     inkscape:pagecheckerboard="0"
     inkscape:deskcolor="#505050"
     inkscape:zoom="1"
     inkscape:cx="233"
     inkscape:cy="166"
     inkscape:window-width="1920"
     inkscape:window-height="1080"
     inkscape:window-x="0"
     inkscape:window-y="0"
     inkscape:window-maximized="1"
     inkscape:current-layer="g1">
    <inkscape:page
       x="0"
       y="0"
       inkscape:label="1"
       id="page1"
       width="432.79999"
       height="461.70667"
       margin="0"
       bleed="0" />
  </sodipodi:namedview>
  <g
     id="g1"
     inkscape:label="1"
     style="display:inline"
     transform="matrix(2,0,0,2,-186.92004,-241.62209)">
    <g
       id="g78"
       transform="matrix(1.2234775,0,0,1.2234775,-26.874274,-59.181474)">
      <path
         id="path13"
         d="m 183.97269,243.328 c -0.86533,0.28667 -1.75067,0.51467 -2.652,0.672 0.90267,-0.15733 1.78533,-0.384 2.652,-0.672"
         style="fill:#ef3269;fill-opacity:1;fill-rule:nonzero;stroke:none;stroke-width:0.133333" />
      <path
         id="path14"
         d="m 178.17536,244.30267 c 0.908,0 1.81066,-0.076 2.70266,-0.20934 -1.00666,0.14934 -2.03066,0.18934 -3.05733,0.16934 0.11733,0.003 0.236,0.04 0.35467,0.04"
         style="fill:#ef3269;fill-opacity:1;fill-rule:nonzero;stroke:none;stroke-width:0.133333" />
      <path
         id="path15"
         d="m 172.40202,208.364 c 0.86667,-0.28666 1.752,-0.51466 2.65334,-0.67066 -0.90267,0.156 -1.78667,0.38266 -2.65334,0.67066"
         style="fill:#ef3269;fill-opacity:1;fill-rule:nonzero;stroke:none;stroke-width:0.133333" />
      <path
         id="path16"
         d="m 178.20069,207.39067 c -0.90933,0 -1.812,0.076 -2.70267,0.208 1.00534,-0.14933 2.03067,-0.18933 3.05734,-0.16933 -0.11867,-0.003 -0.23734,-0.0387 -0.35467,-0.0387"
         style="fill:#ef3269;fill-opacity:1;fill-rule:nonzero;stroke:none;stroke-width:0.133333" />
      <path
         id="path17"
         d="m 181.08469,207.70667 c 0.42267,0.0667 0.84533,0.0813 1.26533,0.18 -0.42133,-0.0987 -0.84266,-0.112 -1.26533,-0.18"
         style="fill:#ef3269;fill-opacity:1;fill-rule:nonzero;stroke:none;stroke-width:0.133333" />
      <path
         id="path18"
         d="m 190.28336,239.756 c -0.80134,0.696 -1.65334,1.32534 -2.55334,1.868 0.90134,-0.544 1.75067,-1.17066 2.55334,-1.868"
         style="fill:#ef3269;fill-opacity:1;fill-rule:nonzero;stroke:none;stroke-width:0.133333" />
      <path
         id="path19"
         d="m 187.17002,241.92 c -0.75333,0.42 -1.532,0.78534 -2.33333,1.096 0.80267,-0.31066 1.58,-0.676 2.33333,-1.096"
         style="fill:#ef3269;fill-opacity:1;fill-rule:nonzero;stroke:none;stroke-width:0.133333" />
      <path
         id="path20"
         d="m 194.86602,233.73867 c -0.488,1.032 -1.08666,1.97333 -1.72933,2.86933 0.644,-0.896 1.24,-1.836 1.72933,-2.86933"
         style="fill:#ef3269;fill-opacity:1;fill-rule:nonzero;stroke:none;stroke-width:0.133333" />
      <path
         id="path21"
         d="m 192.56202,237.34667 c -0.53066,0.66533 -1.10266,1.28667 -1.71066,1.86267 0.60933,-0.57734 1.17866,-1.19734 1.71066,-1.86267"
         style="fill:#ef3269;fill-opacity:1;fill-rule:nonzero;stroke:none;stroke-width:0.133333" />
      <path
         id="path22"
         d="m 161.50869,217.95334 c 0.48934,-1.032 1.08667,-1.97334 1.72934,-2.86934 -0.64267,0.896 -1.24,1.83734 -1.72934,2.86934"
         style="fill:#ef3269;fill-opacity:1;fill-rule:nonzero;stroke:none;stroke-width:0.133333" />
      <path
         id="path23"
         d="m 163.81269,214.34534 c 0.532,-0.66534 1.104,-1.288 1.71334,-1.864 -0.61067,0.57733 -1.18134,1.19733 -1.71334,1.864"
         style="fill:#ef3269;fill-opacity:1;fill-rule:nonzero;stroke:none;stroke-width:0.133333" />
      <path
         id="path24"
         d="m 166.09003,211.93734 c 0.80266,-0.69734 1.65466,-1.32534 2.556,-1.86934 -0.90134,0.544 -1.75334,1.17067 -2.556,1.86934"
         style="fill:#ef3269;fill-opacity:1;fill-rule:nonzero;stroke:none;stroke-width:0.133333" />
      <path
         id="path25"
         d="m 169.20203,209.77334 c 0.75466,-0.42 1.53466,-0.78534 2.33733,-1.09734 -0.804,0.312 -1.58267,0.67734 -2.33733,1.09734"
         style="fill:#ef3269;fill-opacity:1;fill-rule:nonzero;stroke:none;stroke-width:0.133333" />
      <path
         id="path26"
         d="m 174.02469,243.80533 c 0.42133,0.0987 0.84267,0.112 1.26533,0.18 -0.42133,-0.0667 -0.84533,-0.0827 -1.26533,-0.18"
         style="fill:#ef3269;fill-opacity:1;fill-rule:nonzero;stroke:none;stroke-width:0.133333" />
      <path
         id="path27"
         d="m 228.85269,195.30667 c 14.64667,22.06 19.232,50.44133 9.948,77.41333 -11.13733,32.34 -39.23867,53.99333 -70.92533,58.5 34.28933,0.84133 66.63466,-20.32533 78.384,-54.44267 10.068,-29.24666 2.34933,-60.31333 -17.40667,-81.47066"
         style="fill:#ef3269;fill-opacity:1;fill-rule:nonzero;stroke:none;stroke-width:0.133333" />
      <path
         id="path28"
         d="m 183.14602,276.78533 c 0,0 8.392,-2.588 20.39734,-1.45333 15.264,1.444 23.05866,6.184 23.05866,6.184 0,0 2.91334,-1.75733 4.064,-4.2 1.15067,-2.44133 0.544,-5.56933 0.544,-5.56933 v 0.007 l -43.78266,-20.52266 c -2.93067,1.07466 -6.04,1.71333 -9.252,1.71333 -4.02534,0 -7.92,-0.87733 -11.576,-2.608 -6.75867,-3.19867 -11.584,-8.85066 -13.91733,-15.392 l -48.69334,-22.82533 c 0,0 -2.71826,4.79333 -4.33173,10.68667 -1.495867,5.46133 -0.307867,11.14 2.25573,13.796 2.824,2.928 8.15067,6.616 19.45467,8.20399 7.01067,0.984 13.06133,0.5 17.51733,0.14534 4.76534,-0.38134 7.708,-0.616 8.05334,1.24533 0.66933,3.6 -7.344,11.55733 -20.172,11.63333 -12.82667,0.0773 -24.5352,-4.86 -24.5352,-4.86 0,0 2.08986,16.60534 12.0352,28.616 9.944,12.00934 21.04666,17.44667 32.94533,17.00667 17.248,-0.64133 35.93466,-21.80667 35.93466,-21.80667"
         style="fill:#ef3269;fill-opacity:1;fill-rule:nonzero;stroke:none;stroke-width:0.133333" />
      <path
         id="path29"
         d="M 274.75936,297.37867 268.24069,279.64 c -1.616,-4.36533 -6.312,-7.064 -10.744,-5.69733 -4.52933,1.38533 -7.08133,6.18266 -5.69333,10.71466 0.0453,0.14934 0.096,0.29734 0.15066,0.44667 l 1.236,3.336 -2.88266,1.048 c -4.36534,1.616 -7.064,6.31067 -5.69734,10.74267 1.38534,4.53066 6.18267,7.08133 10.71334,5.69333 0.152,-0.0453 0.29866,-0.0947 0.448,-0.15067 l 18.19866,-6.68533 c 0.68667,-0.256 1.03867,-1.01733 0.79067,-1.708 l -0.001,-10e-4"
         style="fill:#ef3269;fill-opacity:1;fill-rule:nonzero;stroke:none;stroke-width:0.133333" />
      <path
         id="path30"
         d="m 153.69803,214.25734 c 2.24666,-4.74667 5.80533,-8.64 10.11466,-11.34267 L 137.33403,152 c 0,0 -3.2,1.908 -6.11867,4.832 -2.70533,2.70934 -3.90667,6.44534 -3.288,8.864 0.68,2.66534 2.57733,6.61334 8.692,11.32667 l -13.97867,-1.6 c 0,0 -2.03066,4.984 1.29067,8.144 2.75467,2.62 6.66933,3.78533 7.324,4.43867 0.36133,0.36 -11.424,-0.61467 -11.424,-0.61467 -0.492,3.36 -0.372,4.98267 0.31467,8.876 1.82933,10.384 5.29733,18.996 12.43733,22.71467 6.99867,3.64533 14.492,7.1 18.62133,8.96133 -0.36266,-4.55867 0.40134,-9.264 2.49334,-13.68533"
         style="fill:#ef3269;fill-opacity:1;fill-rule:nonzero;stroke:none;stroke-width:0.133333" />
      <path
         id="path31"
         d="m 177.82069,244.26267 c 1.02667,0.02 2.05067,-0.02 3.05733,-0.16934 0.14934,-0.0213 0.29334,-0.068 0.44267,-0.0933 0.90133,-0.15733 1.78667,-0.38533 2.652,-0.672 0.29067,-0.096 0.57867,-0.20133 0.864,-0.312 0.80133,-0.31066 1.58,-0.676 2.33333,-1.096 0.18534,-0.10266 0.37867,-0.18666 0.56,-0.296 0.9,-0.54266 1.752,-1.172 2.55334,-1.868 0.19733,-0.172 0.37733,-0.36666 0.568,-0.54666 0.608,-0.576 1.18,-1.19734 1.71066,-1.86267 0.19467,-0.24267 0.39067,-0.484 0.57467,-0.73867 0.64267,-0.896 1.24133,-1.83733 1.72933,-2.86933 4.35867,-9.212 0.42534,-20.212 -8.78666,-24.57067 -1.21734,-0.576 -2.468,-0.988 -3.72934,-1.28133 -0.42,-0.0987 -0.84266,-0.11333 -1.26533,-0.18 -0.84267,-0.13467 -1.688,-0.26133 -2.52933,-0.27733 -1.02667,-0.02 -2.052,0.02 -3.05734,0.16933 -0.14933,0.0227 -0.29466,0.068 -0.44266,0.0947 -0.90134,0.156 -1.78667,0.384 -2.65334,0.67066 -0.29066,0.096 -0.57733,0.20267 -0.86266,0.312 -0.80267,0.312 -1.58267,0.67734 -2.33733,1.09734 -0.18267,0.10266 -0.376,0.18533 -0.556,0.29466 -0.90134,0.544 -1.75334,1.172 -2.556,1.86934 -0.196,0.17066 -0.37467,0.364 -0.564,0.544 -0.60934,0.576 -1.18134,1.19866 -1.71334,1.864 -0.19466,0.244 -0.39066,0.484 -0.57466,0.73866 -0.64267,0.896 -1.24,1.83734 -1.72934,2.86934 -4.35866,9.212 -0.424,20.212 8.78667,24.57066 1.21733,0.576 2.46933,0.988 3.72933,1.28133 0.42,0.0973 0.844,0.11334 1.26533,0.18 0.844,0.13467 1.688,0.26134 2.53067,0.27734"
         style="fill:#ef3269;fill-opacity:1;fill-rule:nonzero;stroke:none;stroke-width:0.133333" />
      <path
         id="path32"
         d="m 165.52603,212.48134 c 0.18933,-0.18 0.368,-0.37334 0.564,-0.544 -0.19734,0.17066 -0.37334,0.36266 -0.564,0.544"
         style="fill:#ef3269;fill-opacity:1;fill-rule:nonzero;stroke:none;stroke-width:0.133333" />
      <path
         id="path33"
         d="m 190.85136,239.20934 c -0.19067,0.18 -0.37067,0.37466 -0.568,0.54666 0.19866,-0.172 0.376,-0.36533 0.568,-0.54666"
         style="fill:#ef3269;fill-opacity:1;fill-rule:nonzero;stroke:none;stroke-width:0.133333" />
      <path
         id="path34"
         d="m 163.23803,215.084 c 0.184,-0.25466 0.38,-0.49466 0.57466,-0.73866 -0.19466,0.24533 -0.39066,0.484 -0.57466,0.73866"
         style="fill:#ef3269;fill-opacity:1;fill-rule:nonzero;stroke:none;stroke-width:0.133333" />
      <path
         id="path35"
         d="m 174.02469,243.80533 c -1.26,-0.29333 -2.512,-0.70533 -3.72933,-1.28133 1.21866,0.57734 2.468,0.988 3.72933,1.28133"
         style="fill:#ef3269;fill-opacity:1;fill-rule:nonzero;stroke:none;stroke-width:0.133333" />
      <path
         id="path36"
         d="m 168.64603,210.068 c 0.18,-0.10933 0.37333,-0.192 0.556,-0.29466 -0.184,0.10266 -0.376,0.18533 -0.556,0.29466"
         style="fill:#ef3269;fill-opacity:1;fill-rule:nonzero;stroke:none;stroke-width:0.133333" />
      <path
         id="path37"
         d="m 182.35002,207.88667 c 1.26134,0.29333 2.512,0.70533 3.72934,1.28133 -1.21734,-0.57733 -2.468,-0.988 -3.72934,-1.28133"
         style="fill:#ef3269;fill-opacity:1;fill-rule:nonzero;stroke:none;stroke-width:0.133333" />
      <path
         id="path38"
         d="m 187.73002,241.624 c -0.18133,0.10934 -0.37466,0.19334 -0.56,0.296 0.18534,-0.10266 0.37867,-0.18666 0.56,-0.296"
         style="fill:#ef3269;fill-opacity:1;fill-rule:nonzero;stroke:none;stroke-width:0.133333" />
      <path
         id="path39"
         d="m 193.13669,236.608 c -0.184,0.25467 -0.38,0.496 -0.57467,0.73867 0.19467,-0.244 0.39067,-0.48267 0.57467,-0.73867"
         style="fill:#ef3269;fill-opacity:1;fill-rule:nonzero;stroke:none;stroke-width:0.133333" />
      <path
         id="path40"
         d="m 184.83669,243.016 c -0.28533,0.11067 -0.57333,0.216 -0.864,0.312 0.292,-0.096 0.57733,-0.20133 0.864,-0.312"
         style="fill:#ef3269;fill-opacity:1;fill-rule:nonzero;stroke:none;stroke-width:0.133333" />
      <path
         id="path41"
         d="m 177.82069,244.26267 c -0.84267,-0.016 -1.68667,-0.14267 -2.53067,-0.27734 0.84534,0.13467 1.68667,0.26134 2.53067,0.27734"
         style="fill:#ef3269;fill-opacity:1;fill-rule:nonzero;stroke:none;stroke-width:0.133333" />
      <path
         id="path42"
         d="m 175.05536,207.69334 c 0.148,-0.0267 0.29333,-0.072 0.44266,-0.0947 -0.15066,0.0227 -0.29333,0.068 -0.44266,0.0947"
         style="fill:#ef3269;fill-opacity:1;fill-rule:nonzero;stroke:none;stroke-width:0.133333" />
      <path
         id="path43"
         d="m 178.55536,207.42934 c 0.84133,0.016 1.68666,0.14266 2.52933,0.27733 -0.844,-0.13467 -1.68533,-0.26133 -2.52933,-0.27733"
         style="fill:#ef3269;fill-opacity:1;fill-rule:nonzero;stroke:none;stroke-width:0.133333" />
      <path
         id="path44"
         d="m 171.53936,208.676 c 0.28533,-0.10933 0.572,-0.216 0.86266,-0.312 -0.292,0.0973 -0.576,0.20134 -0.86266,0.312"
         style="fill:#ef3269;fill-opacity:1;fill-rule:nonzero;stroke:none;stroke-width:0.133333" />
      <path
         id="path45"
         d="m 181.32069,244 c -0.14933,0.0253 -0.29333,0.072 -0.44267,0.0933 0.14934,-0.0213 0.29334,-0.0667 0.44267,-0.0933"
         style="fill:#ef3269;fill-opacity:1;fill-rule:nonzero;stroke:none;stroke-width:0.133333" />
    </g>
  </g>
</svg>
